# xmcd
# 
# Track frame offsets:
#     182
#     15880
#     55897
#     77377
#     99817
#     118497
#     166877
#     184217
# 
# Disc length: 2745
# 
# Revision: 22
# Processed by: cddbd v1.5.2PL0 Copyright (c) Steve Scherf et al.
# Submitted via: fre:ac v1.1.4
# 
DISCID=540ab708
DTITLE=Genesis / Invisible Touch
DYEAR=1986
DGENRE=Rock
TTITLE0=Invisible Touch
TTITLE1=Tonight, Tonight, Tonight
TTITLE2=Land of Confusion
TTITLE3=In Too Deep
TTITLE4=Domino - Part One - In the Glow of the Night
TTITLE5=Dominot - Part Two - The Last Domino
TTITLE6=Throwing It All Away
TTITLE7=The Brazilian
EXTD=
EXTT0=
EXTT1=
EXTT2=
EXTT3=
EXTT4=
EXTT5=Part One - In The Glow Of The Night\nPart Two - The Last Domino
EXTT6=
EXTT7=
PLAYORDER=
.
